HIERARCHY
ROOT Hips
{
	OFFSET -14.64140 90.27770 -84.91600
	CHANNELS 6 Xposition Yposition Zposition Zrotation Xrotation Yrotation
	JOINT Spine
	{
		OFFSET 0.00000 13.20850 -1.60436
		CHANNELS 3 Zrotation Xrotation Yrotation
		JOINT Spine1
		{
			OFFSET 0.00000 8.61716 0.00000
			CHANNELS 3 Zrotation Xrotation Yrotation
			JOINT Spine2
			{
				OFFSET 0.00000 8.61717 0.00000
				CHANNELS 3 Zrotation Xrotation Yrotation
				JOINT Spine3
				{
					OFFSET 0.00000 8.61717 0.00000
					CHANNELS 3 Zrotation Xrotation Yrotation
					JOINT Neck
					{
						OFFSET 0.00000 11.07920 1.10792
						CHANNELS 3 Zrotation Xrotation Yrotation
						JOINT Neck1
						{
							OFFSET 0.00000 7.08032 0.00000
							CHANNELS 3 Zrotation Xrotation Yrotation
							JOINT Head
							{
								OFFSET 0.00000 7.08031 0.00000
								CHANNELS 3 Zrotation Xrotation Yrotation
								End site
								{
									OFFSET 0.00000 0.00000 0.00000
								}
							}
						}
					}
					JOINT RightShoulder
					{
						OFFSET -0.01000 7.91373 5.19711
						CHANNELS 3 Zrotation Xrotation Yrotation
						JOINT RightArm
						{
							OFFSET -18.41580 0.00000 0.00000
							CHANNELS 3 Zrotation Xrotation Yrotation
							JOINT RightForeArm
							{
								OFFSET -29.11090 0.00000 0.00000
								CHANNELS 3 Zrotation Xrotation Yrotation
								JOINT RightHand
								{
									OFFSET -24.65040 0.00000 0.00000
									CHANNELS 3 Zrotation Xrotation Yrotation
									JOINT RightHandThumb1
									{
										OFFSET -5.35114 -0.85590 3.97906
										CHANNELS 3 Zrotation Xrotation Yrotation
										JOINT RightHandThumb2
										{
											OFFSET -4.52789 0.00000 0.00000
											CHANNELS 3 Zrotation Xrotation Yrotation
											JOINT RightHandThumb3
											{
												OFFSET -2.46976 0.00000 0.00000
												CHANNELS 3 Zrotation Xrotation Yrotation
												End site
												{
													OFFSET 0.00000 0.00000 0.00000
												}
											}
										}
									}
									JOINT RightHandIndex1
									{
										OFFSET -14.26970 0.00000 2.88139
										CHANNELS 3 Zrotation Xrotation Yrotation
										JOINT RightHandIndex2
										{
											OFFSET -5.48836 0.00000 0.00000
											CHANNELS 3 Zrotation Xrotation Yrotation
											JOINT RightHandIndex3
											{
												OFFSET -3.01859 0.00000 0.00000
												CHANNELS 3 Zrotation Xrotation Yrotation
												End site
												{
													OFFSET 0.00000 0.00000 0.00000
												}
											}
										}
									}
									JOINT RightHandMiddle1
									{
										OFFSET -14.26970 0.00000 -0.09147
										CHANNELS 3 Zrotation Xrotation Yrotation
										JOINT RightHandMiddle2
										{
											OFFSET -6.17441 0.00000 0.00000
											CHANNELS 3 Zrotation Xrotation Yrotation
											JOINT RightHandMiddle3
											{
												OFFSET -3.56743 0.00000 0.00000
												CHANNELS 3 Zrotation Xrotation Yrotation
												End site
												{
													OFFSET 0.00000 0.00000 0.00000
												}
											}
										}
									}
									JOINT RightHandRing1
									{
										OFFSET -12.69180 0.00000 -3.06433
										CHANNELS 3 Zrotation Xrotation Yrotation
										JOINT RightHandRing2
										{
											OFFSET -5.62556 0.00000 0.00000
											CHANNELS 3 Zrotation Xrotation Yrotation
											JOINT RightHandRing3
											{
												OFFSET -3.56744 0.00000 0.00000
												CHANNELS 3 Zrotation Xrotation Yrotation
												End site
												{
													OFFSET 0.00000 0.00000 0.00000
												}
											}
										}
									}
									JOINT RightHandPinky1
									{
										OFFSET -11.11390 0.00000 -6.03719
										CHANNELS 3 Zrotation Xrotation Yrotation
										JOINT RightHandPinky2
										{
											OFFSET -4.52789 0.00000 0.00000
											CHANNELS 3 Zrotation Xrotation Yrotation
											JOINT RightHandPinky3
											{
												OFFSET -2.46976 0.00000 0.00000
												CHANNELS 3 Zrotation Xrotation Yrotation
												End site
												{
													OFFSET 0.00000 0.00000 0.00000
												}
											}
										}
									}
								}
							}
						}
					}
					JOINT LeftShoulder
					{
						OFFSET 0.01000 7.91373 5.19711
						CHANNELS 3 Zrotation Xrotation Yrotation
						JOINT LeftArm
						{
							OFFSET 18.41580 0.00000 0.00000
							CHANNELS 3 Zrotation Xrotation Yrotation
							JOINT LeftForeArm
							{
								OFFSET 29.11090 0.00000 0.00000
								CHANNELS 3 Zrotation Xrotation Yrotation
								JOINT LeftHand
								{
									OFFSET 24.65040 0.00000 0.00000
									CHANNELS 3 Zrotation Xrotation Yrotation
									JOINT LeftHandThumb1
									{
										OFFSET 5.35114 -0.85590 3.97906
										CHANNELS 3 Zrotation Xrotation Yrotation
										JOINT LeftHandThumb2
										{
											OFFSET 4.52789 0.00000 0.00000
											CHANNELS 3 Zrotation Xrotation Yrotation
											JOINT LeftHandThumb3
											{
												OFFSET 2.46977 0.00000 0.00000
												CHANNELS 3 Zrotation Xrotation Yrotation
												End site
												{
													OFFSET 0.00000 0.00000 0.00000
												}
											}
										}
									}
									JOINT LeftHandIndex1
									{
										OFFSET 14.26970 0.00000 2.88139
										CHANNELS 3 Zrotation Xrotation Yrotation
										JOINT LeftHandIndex2
										{
											OFFSET 5.48836 0.00000 0.00000
											CHANNELS 3 Zrotation Xrotation Yrotation
											JOINT LeftHandIndex3
											{
												OFFSET 3.01859 0.00000 0.00000
												CHANNELS 3 Zrotation Xrotation Yrotation
												End site
												{
													OFFSET 0.00000 0.00000 0.00000
												}
											}
										}
									}
									JOINT LeftHandMiddle1
									{
										OFFSET 14.26970 0.00000 -0.09147
										CHANNELS 3 Zrotation Xrotation Yrotation
										JOINT LeftHandMiddle2
										{
											OFFSET 6.17440 0.00000 0.00000
											CHANNELS 3 Zrotation Xrotation Yrotation
											JOINT LeftHandMiddle3
											{
												OFFSET 3.56744 0.00000 0.00000
												CHANNELS 3 Zrotation Xrotation Yrotation
												End site
												{
													OFFSET 0.00000 0.00000 0.00000
												}
											}
										}
									}
									JOINT LeftHandRing1
									{
										OFFSET 12.69180 0.00000 -3.06433
										CHANNELS 3 Zrotation Xrotation Yrotation
										JOINT LeftHandRing2
										{
											OFFSET 5.62556 0.00000 0.00000
											CHANNELS 3 Zrotation Xrotation Yrotation
											JOINT LeftHandRing3
											{
												OFFSET 3.56744 0.00000 0.00000
												CHANNELS 3 Zrotation Xrotation Yrotation
												End site
												{
													OFFSET 0.00000 0.00000 0.00000
												}
											}
										}
									}
									JOINT LeftHandPinky1
									{
										OFFSET 11.11390 0.00000 -6.03719
										CHANNELS 3 Zrotation Xrotation Yrotation
										JOINT LeftHandPinky2
										{
											OFFSET 4.52789 0.00000 0.00000
											CHANNELS 3 Zrotation Xrotation Yrotation
											JOINT LeftHandPinky3
											{
												OFFSET 2.46976 0.00000 0.00000
												CHANNELS 3 Zrotation Xrotation Yrotation
												End site
												{
													OFFSET 0.00000 0.00000 0.00000
												}
											}
										}
									}
								}
							}
						}
					}
					JOINT pCube4
					{
						OFFSET 0.00000 10.91090 1.10792
						CHANNELS 3 Zrotation Xrotation Yrotation
						End site
						{
							OFFSET 0.00000 0.00000 0.00000
						}
					}
				}
			}
		}
	}
	JOINT RightUpLeg
	{
		OFFSET -9.98441 0.00000 0.00000
		CHANNELS 3 Zrotation Xrotation Yrotation
		JOINT RightLeg
		{
			OFFSET 0.00000 -42.11790 0.00000
			CHANNELS 3 Zrotation Xrotation Yrotation
			JOINT RightFoot
			{
				OFFSET 0.00000 -45.00020 -0.00001
				CHANNELS 3 Zrotation Xrotation Yrotation
				JOINT RightForeFoot
				{
					OFFSET 0.00000 -3.74820 0.00000
					CHANNELS 3 Zrotation Xrotation Yrotation
					JOINT RightToeBase
					{
						OFFSET 0.00000 0.06325 14.43120
						CHANNELS 3 Zrotation Xrotation Yrotation
						End site
						{
							OFFSET 0.00000 0.00000 0.00000
						}
					}
				}
			}
		}
	}
	JOINT LeftUpLeg
	{
		OFFSET 9.98441 0.00000 0.00000
		CHANNELS 3 Zrotation Xrotation Yrotation
		JOINT LeftLeg
		{
			OFFSET 0.00000 -42.11800 0.00000
			CHANNELS 3 Zrotation Xrotation Yrotation
			JOINT LeftFoot
			{
				OFFSET 0.00000 -45.00070 0.00000
				CHANNELS 3 Zrotation Xrotation Yrotation
				JOINT LeftForeFoot
				{
					OFFSET 0.00000 -3.74824 0.00000
					CHANNELS 3 Zrotation Xrotation Yrotation
					JOINT LeftToeBase
					{
						OFFSET 0.00000 0.06325 14.43110
						CHANNELS 3 Zrotation Xrotation Yrotation
						End site
						{
							OFFSET 0.00000 0.00000 0.00000
						}
					}
				}
			}
		}
	}
}
MOTION
Frames: 4
Frame Time: 0.050000
-0.033966534838384736 0.0022708934157136475 -0.03354447895795021 -0.001010549771205043 0.039226787385381656 -0.002599106390555649 -2.1980138393589237 0.1955799882286148 -0.8751962923578464 -1.0080723843300545 3.7124036063842807 0.38183626875156 -1.1610066103118093 -1.8792000614303515 -1.321369390857208 0.1144501693802912 0.4067197530043675 -0.8728484875021824 -0.14307803679945497 12.836983254935062 0.7536857656258471 0.4791227058283661 0.5366387994888364 1.1935241158093481 0.3342815007532635 -13.817286601252816 0.1335147132399043 -3.6368951371768916 1.3341619445830366 -15.672935422978767 73.39577061376194 15.950606307039097 -0.7200986174258324 -3.7504256803908222 7.403892836993183 42.47090751425219 22.707146953118706 -0.04301070051955061 -4.939787826740563 4.498958409056217 -0.15886526988210345 -1.623786667501316 0.030813621348093713 -0.01285983671916456 -56.28398499681355 -0.028658833069699595 0.0313873268672336 -56.201289450435986 -38.7734971294992 0.04053793315285158 -0.01126346197771142 0.04869084975912836 -0.013020099525205614 0.014071991679533125 -0.030555548130792923 -0.00152485927104943 0.009236818870695131 -36.68555758447618 0.009309933935895645 0.0360735232202151 -0.013228271407663906 0.04134260018735961 0.003684920300762217 0.0189071735502598 0.027407509788496872 0.024200641573737188 -19.7382674274005 -0.017920257712205304 -0.04788300537366861 -0.041340186438711395 0.03610918740561626 -0.03574897923086175 0.023299134303596664 0.023849659022466465 0.04781308072397141 24.086832856595702 0.016319275880721427 0.027147675123173617 28.82402206455233 0.008951860447944738 0.024577391611117563 28.868784717435393 0.023199710305782377 0.00036311696769693796 5.524684427030796 1.3382189178097896 13.841731645536292 -71.15466802144395 29.49126727926772 -6.953015624213317 -7.025699625016274 -7.712012060677282 -89.18397920449902 -9.835550302787448 -5.863985899233556 3.765531594985586 -0.4593993179492019 0.08359554598810383 -8.166473309020681 -0.00886833266039671 -0.021672138120585667 44.58800345401791 -0.04466273715524458 -0.02533240211284438 44.59340836248988 12.496219183149543 -0.032289423505508466 0.046968436101335484 0.03853449495501735 -0.025644743459797593 0.04214348959193581 0.023847221710634765 -0.02685692028671958 0.03682604518121936 11.149452415124669 0.013841278316839031 -0.03545721869387345 -0.003667068106637172 -0.03355238516456451 -0.00971045332387632 0.03861473013661358 -0.026993813272884627 -0.017816615461038406 4.810574349078665 -0.00458675182965094 -0.004317191072928498 -0.03744787706061647 -0.015637562005134713 -0.01847827797555053 -0.04384670054745728 -0.02171970711428988 0.016539762258410955 -5.59581908559584 0.01205355185172479 0.006554356162970812 -6.685409314915533 0.04554695616815411 0.024257311652559826 -6.745807387517259 0.03969849343799129 0.04382024232456299 -0.0005451728944910706 -0.026264719495706135 0.029268095230737822 8.056704975449074 3.4603861783643315 -19.204795005411334 -0.015779428785885192 10.394122318927085 0.004572547223881958 -5.616792825499908 -15.678535042671072 3.196028127048048 0.011216508862841255 0.01750542800729273 -0.042729521181797334 -0.02328563961119596 4.660565654238638 -0.04420406204777904 12.476124189466427 -8.243222316253478 6.842703404206374 0.040848447166349916 46.348343493500714 -0.03022333983877435 -4.316948095272935 -14.787662554000198 -3.8012708527509216 -0.02865539966611348 0.008100014832041319 0.0032536364522943663 0.016131677586273138 -10.723828284501362 0.0227036191831064 
-0.032682194118499944 -0.038479766089858786 0.002378447481065917 0.005894938470307519 0.03735106825866579 0.04075473936684361 -2.3042449679567634 0.20970690607076337 -0.880867745833504 -0.9478443023503462 3.6643366937346036 0.3602062455856646 -1.2114576498234604 -1.9258061942656621 -1.4441169386043438 0.03433169316276422 0.37221145876619793 -0.8814156271583412 -0.20053716328236232 13.031513726757636 1.0330872442429557 0.5629721294346623 0.6269742597057015 1.916391832637308 0.3493628604504011 -13.740492960436749 0.12217093935657977 -3.749256563248544 1.4046850095843362 -15.686969649645512 73.29801337199618 15.285782805230399 -0.8689881733605708 -3.2875604434346855 7.464523560286517 42.36176269512456 22.839173508743503 0.010002996235472982 -4.8282723796527796 4.5452548856115165 -0.08942544395321034 -1.5951652731127945 -0.01067973184690263 0.03830278779828428 -56.21629309607744 -0.021762754459907826 -0.005896643936752896 -56.2369348448533 -38.77690639701648 -0.031862272759579376 0.013466439470153515 -0.03172442767952677 0.0031544263303202418 -0.02871062459084171 0.016975199173248662 -0.01459818807770359 -0.02031271905470662 -36.654427686240695 0.010084933625135246 0.03568637136486163 0.010059097154889587 -0.025389688946996697 0.0215364863514177 -0.033890825861235103 -0.007748636054869595 0.0032318357805168167 -19.755117169005516 0.04350592118976644 0.025361787906363554 0.020925385512976177 -0.026945942789020162 0.03697514228112461 0.04830004898561175 -0.0244054497261328 0.01628752227976158 24.059396881975896 0.045984012189497304 -0.010759957638727105 28.822191319247406 -0.002592975949751402 0.015569547883293091 28.834344468717564 -0.04749694181738949 -0.014706464742180929 5.6465319602855075 1.4117707304222262 13.85117002429277 -70.975237586909 29.859295151443654 -7.2416820289824395 -7.159136721703562 -7.970932042561086 -89.60743631781003 -8.840837385784484 -5.156616908983651 2.836092897900093 -0.45179979150233385 0.0716254813723295 -8.122669554933266 -0.02959856799657792 -0.009623292653387943 44.54072757289247 -0.025414148650561276 0.005208526672830112 44.594006350250936 12.491361322080019 -0.003568275999314847 0.04908912400575888 0.006154920133873035 -0.049425128189988024 -0.0400436732210539 -0.04885665874878058 0.00888523060461977 0.014839814208116217 11.143899171675523 0.02136266622162364 0.035973887478885566 -0.029548269417977453 0.008942513809194563 0.04204679287200369 0.018253397496076608 -0.01413529162648323 0.02922333367852143 4.744904069555477 -0.042714519273908944 -0.038514363121509854 0.003853467520993116 -0.010623227065697438 -0.03148708469208309 -0.02078757892652559 -0.00045620899397487847 0.006125647432855206 -5.597250040580887 0.04813409140613192 0.02272896855252327 -6.764182541674291 0.009078570045099783 0.024703827127312155 -6.752003740707675 0.009443350727257566 0.03862082771610403 -0.026771209036667715 -0.0016796148269067033 -0.009803585388794682 8.034180714532543 3.493728859297194 -19.211388530292457 -0.014487366293825066 10.386093896916087 -0.016778642669167683 -5.627239152142419 -15.671618232767537 3.2025535521541566 -0.01820311917105118 -0.010933938492287503 0.044327991280099496 0.039819545085342196 4.681879208984133 -0.005078344506827901 12.449454365885735 -8.263482612186465 6.881401935150797 0.024919514978945578 46.381479855015854 0.0025605630400809837 -4.3455611237159015 -14.797268897870072 -3.8449465236761813 0.011109063682876471 0.03093574269984761 0.026794742964876245 0.0004998384551630062 -10.736031396148716 -0.00020664190640767288 
0.012722182418465755 0.028745594661829528 -0.03526680808230601 0.010592051083564183 0.014359773865590054 0.009214677223224015 -2.4615113888619473 0.09575427044927873 -0.7789942231451825 -0.9602747468410108 3.746943394862203 0.41104090422956746 -1.208951487707297 -1.962096180589932 -1.4579553930233267 -0.047941432127978766 0.3738410420454497 -0.8769584627165492 -0.27227219934796515 13.234222282671558 1.3594423706786478 0.5486462764082131 0.6911349589765287 2.7339545499442477 0.21063323333100084 -13.594866782527808 0.22393009989930407 -3.8767245996023068 1.4719788181723794 -15.7423596276589 73.2607740074068 15.19312370137216 -1.1150870594243332 -2.441444576567185 7.6385174311192285 42.88084085510922 22.87222218597235 -0.09337879816001499 -4.65362663745984 4.548213284304821 -0.15064058039903233 -1.5691002883959562 -0.030939733223923897 0.03297244845264157 -56.22809937845907 0.04144890200125299 -0.003745166889302407 -56.264199823347724 -38.73893082390953 0.027191402520564848 0.026200718148083092 -0.04086180665904774 -0.016724478082056474 -0.020580364352393028 0.023445570197142215 0.013312876587203166 0.04446772198453033 -36.69504226230503 -0.021678991364239075 -0.01813762943686142 0.02287354933631454 -0.007574133898688736 -0.006680179539052026 0.0003758402367844834 -0.0056923774849992346 -0.008125683656868504 -19.776055946391953 -0.015126824195313747 -0.033952815897539 -0.004406489387097076 -0.03163388613732893 0.01852711589299551 -0.04374354392289915 0.019697781640679573 -0.02460991747930526 24.017503523455424 0.03676068759314838 0.02237935539135347 28.881445480912866 0.025509287316316753 0.006826260789129793 28.859640339422945 -0.002601776884234975 -0.01837612950282093 5.88837194955211 1.3812127842129365 13.939615282926622 -70.81998052727013 30.419178963757425 -7.432487406498355 -5.954996803320976 -8.703951019079911 -90.49905241256373 -7.736418186766692 -4.345554382383915 1.6685070620649598 -0.45663774892961667 0.062093064396100614 -8.135940370447758 0.03246543739973848 -0.01626522815048876 44.55735313480128 -0.014376583014919066 0.04615640094211285 44.536686745262195 12.456730093384499 0.03667445521752355 0.0322663126232876 -0.029749656718511062 -0.01694725544785243 -0.010802380221916505 -0.03159290680537128 0.049722086004311376 0.03186643415892981 11.058426395426658 -0.025225189157250687 -0.02280004644147667 0.02327719968205883 -0.02056270383245209 -0.012567559430099549 -0.037335305346062414 -0.012344126033931058 -0.021433781477915283 4.736092633242997 -0.030156757016517106 0.006722873937785094 0.03975000592754174 0.04414202880669481 0.022652677519572867 -0.024010839497337053 -0.020365290047811176 0.005116613412520145 -5.621643891740866 -0.01524040236258991 0.04725490730824547 -6.748675004892068 -0.018259054308473445 0.032252433257499845 -6.687550490260992 -0.018679655058878093 -7.082417147660368e-05 -0.005630993802798225 0.008307018395356667 0.04427276202437021 8.031565825204169 3.4942312143927015 -19.207180065408366 -0.03748448607411292 10.349677899386407 0.014696241181747186 -5.656236474104309 -15.694434371226397 3.228923213641431 0.030790023291924817 -0.018723665745412593 -0.008537681900792753 0.03716422337292894 4.69937541331023 -0.02807300978959865 12.465022837559715 -8.281337574899743 6.852214990289204 0.026304692480633784 46.40094299762655 -0.03734820341700672 -4.293257064310471 -14.749415912568589 -3.885274215063052 -0.049236946343517024 -0.008411130664412162 0.030445853729753797 0.023549294277036628 -10.710760667083568 -0.029435378236459805 
0.006070050635592316 0.008546837368942233 -0.02621557508338289 0.008836124006715414 -0.03239901430177727 -0.03697873542003364 -2.6174725726337282 0.07326338540905794 -0.8327909773989878 -1.0455186767113676 3.6951475840255537 0.4012147779531293 -1.1828648116628284 -2.044264398822279 -1.5116073089352855 -0.1257891518202315 0.4769827592955487 -0.8954036230268696 -0.2784235529491703 13.448002265893466 1.7361901433789826 0.5893899269682059 0.7894602069674097 3.505261905929759 0.19260946258062514 -13.56476601449711 0.2630646327151476 -3.9147124526282266 1.4217735949638373 -15.724432530745373 73.19724477197957 15.069475502416852 -1.3022134317898015 -1.6000353112136876 7.629451293317407 43.36679862043061 22.798677627165002 -0.06459847729666514 -4.397664843214056 4.555371025808762 -0.1452248130589162 -1.614258905461705 -0.00834288101930205 0.023686654152989123 -56.21720170358746 0.010202846383768385 0.005178984064505175 -56.20330914265172 -38.787651392414 -0.040594257066446 0.016736102281429178 -0.013644857070095351 -0.01664742000851453 -0.02105680886107085 -0.03844812746479518 -0.003779426193173744 -0.03960536875957284 -36.72542897842927 0.02690126693317614 -0.029433779616057195 -0.035698219621984335 -0.009268842629565188 0.0035434392027050266 0.02220323668577991 0.007074222389028015 -0.025587718482790664 -19.71774817357594 -0.04236352952452707 0.029234500021147213 -0.008992487996752459 -0.0007942278443385648 0.04526381488652535 0.03530099374140411 0.015041178906488846 -0.008459473541269974 24.07422623729596 0.022296716792433946 0.022700904192618453 28.872462588205767 -0.02788632849547969 -0.014486844127851149 28.9103729849414 -0.039233370037490396 -0.017708616898448697 6.022707526485591 1.4035871209072988 13.956752833212192 -70.51951106274491 30.993162558140828 -7.7281824008843865 -3.2967011389631473 -10.016316570621873 -91.65979600568517 -6.3248509258863574 -3.637795255536429 0.4073023731758816 -0.5015496017339546 0.06233023920709478 -8.165119121720533 0.016928237720725648 -0.04548861652893596 44.59526086496254 0.006654649372083566 -0.0012829691097107842 44.56318846479486 12.466379175818075 -0.04215564801103287 0.04053648659579116 -0.015733147091261723 0.022377290964183616 0.019872376249888375 0.02697322368369964 -0.01829945710716527 -0.04299504799457125 11.08728103231382 -0.02249391133781635 -0.01595862858538487 -0.02890978866182262 -0.024918133796180894 0.0014065104316800883 0.018897730774655862 0.016497388297781544 -0.03438958045660737 4.767175622358329 0.03025658012653893 0.027637530047761122 -0.046360359191427496 -0.018362723478517095 0.039457630885101014 -0.033907570074676666 0.02646359398089831 0.004820298693686319 -5.615047552064257 0.045512268399300906 -0.02494696553957683 -6.719845281282556 0.03938014408211091 0.011962958986433637 -6.705460347221445 -0.045836598304307107 -0.01994557910881915 0.04184715523233545 0.014965192375340209 0.02649043208660587 7.996459673648475 3.5024889632172553 -19.200106257346448 -0.04605919123730246 10.380693635720384 0.00023029648123945243 -5.6152110365167855 -15.702878922756737 3.197528121517448 -0.01478479525214986 0.03576740216431624 0.005588042372594259 0.043785181079370725 4.6719683925612525 -0.0022319021255567503 12.502096850228524 -8.285516122713824 6.835367106155521 0.031850158842752704 46.42145602647725 -0.005212708103766089 -4.332995721606428 -14.774586038396501 -3.8742960179394306 0.012696447564343539 0.02329628522766578 0.03610711884477638 -0.048203194060477475 -10.777585439148133 0.004287071634789396 
